<?xml version="1.0" standalone="no"?>
<!DOCTYPE svg PUBLIC "-//W3C//DTD SVG 1.1//EN" "http://www.w3.org/Graphics/SVG/1.1/DTD/svg11.dtd" >
<svg xmlns="http://www.w3.org/2000/svg" xmlns:xlink="http://www.w3.org/1999/xlink" version="1.1">
<metadata>
Created by FontForge 20161003 at Sat Mar 11 14:11:55 2017
 By www-data
Copyright (c) 1997 by Matthew Welch. All Rights Reserved.
</metadata>
<defs>
<font id="Free3of9Extended" horiz-adv-x="1568" >
  <font-face 
    font-family="Free 3 of 9 Extended"
    font-weight="400"
    font-stretch="normal"
    units-per-em="2048"
    panose-1="0 0 0 0 0 0 0 0 0 0"
    ascent="1638"
    descent="-410"
    x-height="1536"
    cap-height="1536"
    bbox="0 0 1516 1540"
    underline-thickness="0"
    underline-position="0"
    unicode-range="U+0020-007F"
  />
<missing-glyph horiz-adv-x="784" 
 />
    <glyph glyph-name=".notdef" horiz-adv-x="784" 
 />
    <glyph glyph-name="glyph1" horiz-adv-x="784" 
d="M52 0h-52v1536h52v-1536z" />
    <glyph glyph-name="glyph2" horiz-adv-x="784" 
d="M140 0h-140v1536h140v-1536z" />
    <glyph glyph-name="asterisk" unicode="*" horiz-adv-x="784" 
d="M244 0h-52v1536h52v-1536zM436 0h-140v1536h140v-1536zM52 0h-52v1536h52v-1536zM628 0h-140v1536h140v-1536zM732 0h-52v1536h52v-1536z" />
    <glyph glyph-name="zero" unicode="0" horiz-adv-x="784" 
d="M732 0h-52v1536h52v-1536zM156 0h-52v1536h52v-1536zM52 0h-52v1536h52v-1536zM628 0h-140v1536h140v-1536zM436 0h-140v1536h140v-1536z" />
    <glyph glyph-name="one" unicode="1" horiz-adv-x="784" 
d="M244 0h-52v1536h52v-1536zM732 0h-140v1536h140v-1536zM140 0h-140v1536h140v-1536zM540 0h-52v1536h52v-1536zM436 0h-52v1536h52v-1536z" />
    <glyph glyph-name="two" unicode="2" horiz-adv-x="784" 
d="M436 0h-52v1536h52v-1536zM52 0h-52v1536h52v-1536zM244 0h-140v1536h140v-1536zM732 0h-140v1536h140v-1536zM540 0h-52v1536h52v-1536z" />
    <glyph glyph-name="three" unicode="3" horiz-adv-x="784" 
d="M332 0h-140v1536h140v-1536zM524 0h-52v1536h52v-1536zM140 0h-140v1536h140v-1536zM732 4h-52v1536h52v-1536zM628 0h-52v1536h52v-1536z" />
    <glyph glyph-name="four" unicode="4" horiz-adv-x="784" 
d="M540 0h-52v1536h52v-1536zM156 0h-52v1536h52v-1536zM52 0h-52v1536h52v-1536zM732 0h-140v1536h140v-1536zM436 0h-140v1536h140v-1536z" />
    <glyph glyph-name="five" unicode="5" horiz-adv-x="784" 
d="M524 0h-140v1536h140v-1536zM244 0h-52v1536h52v-1536zM628 0h-52v1536h52v-1536zM140 0h-140v1536h140v-1536zM732 0h-52v1536h52v-1536z" />
    <glyph glyph-name="six" unicode="6" horiz-adv-x="784" 
d="M628 0h-52v1536h52v-1536zM52 0h-52v1536h52v-1536zM244 0h-140v1536h140v-1536zM524 0h-140v1536h140v-1536zM732 0h-52v1536h52v-1536z" />
    <glyph glyph-name="seven" unicode="7" horiz-adv-x="784" 
d="M348 0h-52v1536h52v-1536zM156 0h-52v1536h52v-1536zM52 0h-52v1536h52v-1536zM540 0h-140v1536h140v-1536zM732 0h-140v1536h140v-1536z" />
    <glyph glyph-name="eight" unicode="8" horiz-adv-x="784" 
d="M628 0h-140v1536h140v-1536zM436 0h-52v1536h52v-1536zM140 0h-140v1536h140v-1536zM732 0h-52v1536h52v-1536zM244 0h-52v1536h52v-1536z" />
    <glyph glyph-name="nine" unicode="9" horiz-adv-x="784" 
d="M436 0h-52v1536h52v-1536zM52 0h-52v1536h52v-1536zM244 0h-140v1536h140v-1536zM628 0h-140v1536h140v-1536zM732 0h-52v1536h52v-1536z" />
    <glyph glyph-name="A" unicode="A" horiz-adv-x="784" 
d="M732 0h-140v1536h140v-1536zM540 0h-52v1536h52v-1536zM244 0h-52v1536h52v-1536zM348 0h-52v1536h52v-1536zM140 0h-140v1536h140v-1536z" />
    <glyph glyph-name="B" unicode="B" horiz-adv-x="784" 
d="M348 0h-52v1536h52v-1536zM52 0h-52v1536h52v-1536zM732 0h-140v1536h140v-1536zM244 0h-140v1536h140v-1536zM540 0h-52v1536h52v-1536z" />
    <glyph glyph-name="C" unicode="C" horiz-adv-x="784" 
d="M628 0h-52v1536h52v-1536zM140 0h-140v1536h140v-1536zM436 0h-52v1536h52v-1536zM332 0h-140v1536h140v-1536zM732 0h-52v1536h52v-1536z" />
    <glyph glyph-name="D" unicode="D" horiz-adv-x="784" 
d="M540 0h-52v1536h52v-1536zM156 0h-52v1536h52v-1536zM52 0h-52v1536h52v-1536zM348 0h-140v1536h140v-1536zM732 0h-140v1536h140v-1536z" />
    <glyph glyph-name="E" unicode="E" horiz-adv-x="784" 
d="M436 0h-140v1536h140v-1536zM732 0h-52v1536h52v-1536zM244 0h-52v1536h52v-1536zM628 0h-52v1536h52v-1536zM140 0h-140v1536h140v-1536z" />
    <glyph glyph-name="F" unicode="F" horiz-adv-x="784" 
d="M628 0h-52v1536h52v-1536zM52 0h-52v1536h52v-1536zM244 0h-140v1536h140v-1536zM436 0h-140v1536h140v-1536zM732 0h-52v1536h52v-1536z" />
    <glyph glyph-name="G" unicode="G" horiz-adv-x="784" 
d="M156 0h-52v1536h52v-1536zM260 0h-52v1536h52v-1536zM52 0h-52v1536h52v-1536zM732 0h-140v1536h140v-1536zM540 0h-140v1536h140v-1536z" />
    <glyph glyph-name="H" unicode="H" horiz-adv-x="784" 
d="M628 0h-140v1536h140v-1536zM732 0h-52v1536h52v-1536zM244 0h-52v1536h52v-1536zM348 0h-52v1536h52v-1536zM140 0h-140v1536h140v-1536z" />
    <glyph glyph-name="I" unicode="I" horiz-adv-x="784" 
d="M348 0h-52v1536h52v-1536zM52 0h-52v1536h52v-1536zM628 0h-140v1536h140v-1536zM732 0h-52v1536h52v-1536zM244 0h-140v1536h140v-1536z" />
    <glyph glyph-name="J" unicode="J" horiz-adv-x="784" 
d="M732 0h-52v1536h52v-1536zM156 0h-52v1536h52v-1536zM52 0h-52v1536h52v-1536zM348 0h-140v1536h140v-1536zM628 0h-140v1536h140v-1536z" />
    <glyph glyph-name="K" unicode="K" horiz-adv-x="784" 
d="M732 0h-140v1536h140v-1536zM452 0h-52v1536h52v-1536zM244 0h-52v1536h52v-1536zM348 0h-52v1536h52v-1536zM140 0h-140v1536h140v-1536z" />
    <glyph glyph-name="L" unicode="L" horiz-adv-x="784" 
d="M348 0h-52v1536h52v-1536zM52 0h-52v1536h52v-1536zM732 0h-140v1536h140v-1536zM452 0h-52v1536h52v-1536zM244 0h-140v1536h140v-1536z" />
    <glyph glyph-name="M" unicode="M" horiz-adv-x="784" 
d="M732 0h-52v1536h52v-1536zM140 0h-140v1536h140v-1536zM540 0h-52v1536h52v-1536zM332 0h-140v1536h140v-1536zM436 0h-52v1536h52v-1536z" />
    <glyph glyph-name="N" unicode="N" horiz-adv-x="784" 
d="M452 0h-52v1536h52v-1536zM156 0h-52v1536h52v-1536zM52 0h-52v1536h52v-1536zM732 0h-140v1536h140v-1536zM348 0h-140v1536h140v-1536z" />
    <glyph glyph-name="O" unicode="O" horiz-adv-x="784" 
d="M540 0h-52v1536h52v-1536zM244 0h-52v1536h52v-1536zM140 0h-140v1536h140v-1536zM732 0h-52v1536h52v-1536zM436 0h-140v1536h140v-1536z" />
    <glyph glyph-name="P" unicode="P" horiz-adv-x="784" 
d="M540 0h-52v1536h52v-1536zM52 0h-52v1536h52v-1536zM244 0h-140v1536h140v-1536zM732 0h-52v1536h52v-1536zM436 0h-140v1536h140v-1536z" />
    <glyph glyph-name="Q" unicode="Q" horiz-adv-x="784" 
d="M156 0h-52v1536h52v-1536zM260 0h-52v1536h52v-1536zM52 0h-52v1536h52v-1536zM452 0h-140v1536h140v-1536zM732 0h-140v1536h140v-1536z" />
    <glyph glyph-name="R" unicode="R" horiz-adv-x="784" 
d="M540 0h-140v1536h140v-1536zM732 0h-52v1536h52v-1536zM244 0h-52v1536h52v-1536zM348 0h-52v1536h52v-1536zM140 0h-140v1536h140v-1536z" />
    <glyph glyph-name="S" unicode="S" horiz-adv-x="784" 
d="M348 0h-52v1536h52v-1536zM52 0h-52v1536h52v-1536zM540 0h-140v1536h140v-1536zM732 0h-52v1536h52v-1536zM244 0h-140v1536h140v-1536z" />
    <glyph glyph-name="T" unicode="T" horiz-adv-x="784" 
d="M732 0h-52v1536h52v-1536zM156 0h-52v1536h52v-1536zM52 0h-52v1536h52v-1536zM348 0h-140v1536h140v-1536zM540 0h-140v1536h140v-1536z" />
    <glyph glyph-name="U" unicode="U" horiz-adv-x="784" 
d="M732 0h-140v1536h140v-1536zM140 0h-140v1536h140v-1536zM332 0h-52v1536h52v-1536zM436 0h-52v1536h52v-1536zM540 0h-52v1536h52v-1536z" />
    <glyph glyph-name="V" unicode="V" horiz-adv-x="784" 
d="M732 0h-140v1536h140v-1536zM332 0h-140v1536h140v-1536zM436 0h-52v1536h52v-1536zM540 0h-52v1536h52v-1536zM52 0h-52v1536h52v-1536z" />
    <glyph glyph-name="W" unicode="W" horiz-adv-x="784" 
d="M420 0h-140v1536h140v-1536zM140 0h-140v1536h140v-1536zM524 0h-52v1536h52v-1536zM732 0h-52v1536h52v-1536zM628 0h-52v1536h52v-1536z" />
    <glyph glyph-name="X" unicode="X" horiz-adv-x="784" 
d="M244 0h-52v1536h52v-1536zM732 0h-140v1536h140v-1536zM540 0h-52v1536h52v-1536zM52 0h-52v1536h52v-1536zM436 0h-140v1536h140v-1536z" />
    <glyph glyph-name="Y" unicode="Y" horiz-adv-x="784" 
d="M524 0h-140v1536h140v-1536zM140 0h-140v1536h140v-1536zM332 0h-52v1536h52v-1536zM628 0h-52v1536h52v-1536zM732 0h-52v1536h52v-1536z" />
    <glyph glyph-name="Z" unicode="Z" horiz-adv-x="784" 
d="M732 0h-52v1536h52v-1536zM524 0h-140v1536h140v-1536zM332 0h-140v1536h140v-1536zM628 0h-52v1536h52v-1536zM52 0h-52v1536h52v-1536z" />
    <glyph glyph-name="hyphen" unicode="-" horiz-adv-x="784" 
d="M244 0h-52v1536h52v-1536zM732 0h-140v1536h140v-1536zM348 0h-52v1536h52v-1536zM52 0h-52v1536h52v-1536zM540 0h-140v1536h140v-1536z" />
    <glyph glyph-name="period" unicode="." horiz-adv-x="784" 
d="M628 0h-140v1536h140v-1536zM140 0h-140v1536h140v-1536zM732 0h-52v1536h52v-1536zM436 0h-52v1536h52v-1536zM332 0h-52v1536h52v-1536z" />
    <glyph glyph-name="space" unicode=" " horiz-adv-x="784" 
d="M436 0h-52v1536h52v-1536zM628 0h-140v1536h140v-1536zM332 0h-140v1536h140v-1536zM732 0h-52v1536h52v-1536zM52 0h-52v1536h52v-1536z" />
    <glyph glyph-name="glyph43" horiz-adv-x="784" 
d="M244 0h-52v1536h52v-1536zM436 0h-52v1536h52v-1536zM628 0h-52v1536h52v-1536zM732 0h-52v1536h52v-1536zM52 0h-52v1536h52v-1536z" />
    <glyph glyph-name="glyph44" horiz-adv-x="784" 
d="M244 0h-52v1536h52v-1536zM436 0h-52v1536h52v-1536zM732 0h-52v1536h52v-1536zM540 0h-52v1536h52v-1536zM52 0h-52v1536h52v-1536z" />
    <glyph glyph-name="glyph45" horiz-adv-x="784" 
d="M244 0h-52v1536h52v-1536zM540 0h-52v1536h52v-1536zM348 0h-52v1536h52v-1536zM732 0h-52v1536h52v-1536zM52 0h-52v1536h52v-1536z" />
    <glyph glyph-name="glyph46" horiz-adv-x="784" 
d="M348 0h-52v1536h52v-1536zM156 0h-52v1536h52v-1536zM540 0h-52v1536h52v-1536zM732 0h-52v1536h52v-1536zM52 0h-52v1536h52v-1536z" />
    <glyph glyph-name="exclam" unicode="!" 
d="M244 0h-52v1536h52v-1536zM436 0h-52v1536h52v-1536zM732 0h-52v1536h52v-1536zM540 0h-52v1536h52v-1536zM52 0h-52v1536h52v-1536zM1516 0h-140v1536h140v-1536zM1324 0h-52v1536h52v-1536zM1028 0h-52v1536h52v-1536zM1132 0h-52v1536h52v-1536zM924 0h-140v1536h140
v-1536z" />
    <glyph glyph-name="quotedbl" unicode="&#x22;" 
d="M244 0h-52v1536h52v-1536zM436 0h-52v1536h52v-1536zM732 0h-52v1536h52v-1536zM540 0h-52v1536h52v-1536zM52 0h-52v1536h52v-1536zM1132 0h-52v1536h52v-1536zM836 0h-52v1536h52v-1536zM1516 0h-140v1536h140v-1536zM1028 0h-140v1536h140v-1536zM1324 0h-52v1536h52
v-1536z" />
    <glyph glyph-name="numbersign" unicode="#" 
d="M244 0h-52v1536h52v-1536zM436 0h-52v1536h52v-1536zM732 0h-52v1536h52v-1536zM540 0h-52v1536h52v-1536zM52 0h-52v1536h52v-1536zM1412 0h-52v1536h52v-1536zM924 0h-140v1536h140v-1536zM1220 0h-52v1536h52v-1536zM1116 0h-140v1536h140v-1536zM1516 0h-52v1536h52
v-1536z" />
    <glyph glyph-name="dollar" unicode="$" 
d="M244 0h-52v1536h52v-1536zM436 0h-52v1536h52v-1536zM732 0h-52v1536h52v-1536zM540 0h-52v1536h52v-1536zM52 0h-52v1536h52v-1536zM1324 0h-52v1536h52v-1536zM940 0h-52v1536h52v-1536zM836 0h-52v1536h52v-1536zM1132 0h-140v1536h140v-1536zM1516 0h-140v1536h140
v-1536z" />
    <glyph glyph-name="percent" unicode="%" 
d="M244 0h-52v1536h52v-1536zM436 0h-52v1536h52v-1536zM732 0h-52v1536h52v-1536zM540 0h-52v1536h52v-1536zM52 0h-52v1536h52v-1536zM1220 0h-140v1536h140v-1536zM1516 0h-52v1536h52v-1536zM1028 0h-52v1536h52v-1536zM1412 0h-52v1536h52v-1536zM924 0h-140v1536h140
v-1536z" />
    <glyph glyph-name="ampersand" unicode="&#x26;" 
d="M244 0h-52v1536h52v-1536zM436 0h-52v1536h52v-1536zM732 0h-52v1536h52v-1536zM540 0h-52v1536h52v-1536zM52 0h-52v1536h52v-1536zM1412 0h-52v1536h52v-1536zM836 0h-52v1536h52v-1536zM1028 0h-140v1536h140v-1536zM1220 0h-140v1536h140v-1536zM1516 0h-52v1536h52
v-1536z" />
    <glyph glyph-name="quotesingle" unicode="'" 
d="M244 0h-52v1536h52v-1536zM436 0h-52v1536h52v-1536zM732 0h-52v1536h52v-1536zM540 0h-52v1536h52v-1536zM52 0h-52v1536h52v-1536zM940 0h-52v1536h52v-1536zM1044 0h-52v1536h52v-1536zM836 0h-52v1536h52v-1536zM1516 0h-140v1536h140v-1536zM1324 0h-140v1536h140
v-1536z" />
    <glyph glyph-name="parenleft" unicode="(" 
d="M244 0h-52v1536h52v-1536zM436 0h-52v1536h52v-1536zM732 0h-52v1536h52v-1536zM540 0h-52v1536h52v-1536zM52 0h-52v1536h52v-1536zM1412 0h-140v1536h140v-1536zM1516 0h-52v1536h52v-1536zM1028 0h-52v1536h52v-1536zM1132 0h-52v1536h52v-1536zM924 0h-140v1536h140
v-1536z" />
    <glyph glyph-name="parenright" unicode=")" 
d="M244 0h-52v1536h52v-1536zM436 0h-52v1536h52v-1536zM732 0h-52v1536h52v-1536zM540 0h-52v1536h52v-1536zM52 0h-52v1536h52v-1536zM1132 0h-52v1536h52v-1536zM836 0h-52v1536h52v-1536zM1412 0h-140v1536h140v-1536zM1516 0h-52v1536h52v-1536zM1028 0h-140v1536h140
v-1536z" />
    <glyph glyph-name="uni007F" 
d="M244 0h-52v1536h52v-1536zM436 0h-52v1536h52v-1536zM732 0h-52v1536h52v-1536zM540 0h-52v1536h52v-1536zM52 0h-52v1536h52v-1536zM1516 0h-52v1536h52v-1536zM940 0h-52v1536h52v-1536zM836 0h-52v1536h52v-1536zM1132 0h-140v1536h140v-1536zM1412 0h-140v1536h140
v-1536z" />
    <glyph glyph-name="plus" unicode="+" 
d="M244 0h-52v1536h52v-1536zM436 0h-52v1536h52v-1536zM732 0h-52v1536h52v-1536zM540 0h-52v1536h52v-1536zM52 0h-52v1536h52v-1536zM1516 0h-140v1536h140v-1536zM1236 0h-52v1536h52v-1536zM1028 0h-52v1536h52v-1536zM1132 0h-52v1536h52v-1536zM924 0h-140v1536h140
v-1536z" />
    <glyph glyph-name="comma" unicode="," 
d="M244 0h-52v1536h52v-1536zM436 0h-52v1536h52v-1536zM732 0h-52v1536h52v-1536zM540 0h-52v1536h52v-1536zM52 0h-52v1536h52v-1536zM1132 0h-52v1536h52v-1536zM836 0h-52v1536h52v-1536zM1516 0h-140v1536h140v-1536zM1236 0h-52v1536h52v-1536zM1028 0h-140v1536h140
v-1536z" />
    <glyph glyph-name="slash" unicode="/" 
d="M244 0h-52v1536h52v-1536zM436 0h-52v1536h52v-1536zM732 0h-52v1536h52v-1536zM540 0h-52v1536h52v-1536zM52 0h-52v1536h52v-1536zM1324 0h-52v1536h52v-1536zM1028 0h-52v1536h52v-1536zM924 0h-140v1536h140v-1536zM1516 0h-52v1536h52v-1536zM1220 0h-140v1536h140
v-1536z" />
    <glyph glyph-name="glyph60" horiz-adv-x="784" 
d="M244 0h-52v1536h52v-1536zM436 0h-52v1536h52v-1536zM732 0h-52v1536h52v-1536zM540 0h-52v1536h52v-1536zM52 0h-52v1536h52v-1536z" />
    <glyph glyph-name="colon" unicode=":" 
d="M244 0h-52v1536h52v-1536zM436 0h-52v1536h52v-1536zM732 0h-52v1536h52v-1536zM540 0h-52v1536h52v-1536zM52 0h-52v1536h52v-1536zM1516 0h-52v1536h52v-1536zM1308 0h-140v1536h140v-1536zM1116 0h-140v1536h140v-1536zM1412 0h-52v1536h52v-1536zM836 0h-52v1536h52
v-1536z" />
    <glyph glyph-name="glyph62" horiz-adv-x="784" 
d="M348 0h-52v1536h52v-1536zM156 0h-52v1536h52v-1536zM540 0h-52v1536h52v-1536zM732 0h-52v1536h52v-1536zM52 0h-52v1536h52v-1536z" />
    <glyph glyph-name="semicolon" unicode=";" 
d="M348 0h-52v1536h52v-1536zM156 0h-52v1536h52v-1536zM540 0h-52v1536h52v-1536zM732 0h-52v1536h52v-1536zM52 0h-52v1536h52v-1536zM1412 0h-52v1536h52v-1536zM836 0h-52v1536h52v-1536zM1028 0h-140v1536h140v-1536zM1220 0h-140v1536h140v-1536zM1516 0h-52v1536h52
v-1536z" />
    <glyph glyph-name="less" unicode="&#x3c;" 
d="M348 0h-52v1536h52v-1536zM156 0h-52v1536h52v-1536zM540 0h-52v1536h52v-1536zM732 0h-52v1536h52v-1536zM52 0h-52v1536h52v-1536zM940 0h-52v1536h52v-1536zM1044 0h-52v1536h52v-1536zM836 0h-52v1536h52v-1536zM1516 0h-140v1536h140v-1536zM1324 0h-140v1536h140
v-1536z" />
    <glyph glyph-name="equal" unicode="=" 
d="M348 0h-52v1536h52v-1536zM156 0h-52v1536h52v-1536zM540 0h-52v1536h52v-1536zM732 0h-52v1536h52v-1536zM52 0h-52v1536h52v-1536zM1412 0h-140v1536h140v-1536zM1516 0h-52v1536h52v-1536zM1028 0h-52v1536h52v-1536zM1132 0h-52v1536h52v-1536zM924 0h-140v1536h140
v-1536z" />
    <glyph glyph-name="greater" unicode="&#x3e;" 
d="M348 0h-52v1536h52v-1536zM156 0h-52v1536h52v-1536zM540 0h-52v1536h52v-1536zM732 0h-52v1536h52v-1536zM52 0h-52v1536h52v-1536zM1132 0h-52v1536h52v-1536zM836 0h-52v1536h52v-1536zM1412 0h-140v1536h140v-1536zM1516 0h-52v1536h52v-1536zM1028 0h-140v1536h140
v-1536z" />
    <glyph glyph-name="question" unicode="?" 
d="M348 0h-52v1536h52v-1536zM156 0h-52v1536h52v-1536zM540 0h-52v1536h52v-1536zM732 0h-52v1536h52v-1536zM52 0h-52v1536h52v-1536zM1516 0h-52v1536h52v-1536zM940 0h-52v1536h52v-1536zM836 0h-52v1536h52v-1536zM1132 0h-140v1536h140v-1536zM1412 0h-140v1536h140
v-1536z" />
    <glyph glyph-name="at" unicode="@" 
d="M348 0h-52v1536h52v-1536zM156 0h-52v1536h52v-1536zM540 0h-52v1536h52v-1536zM732 0h-52v1536h52v-1536zM52 0h-52v1536h52v-1536zM1516 0h-140v1536h140v-1536zM1116 0h-140v1536h140v-1536zM1220 0h-52v1536h52v-1536zM1324 0h-52v1536h52v-1536zM836 0h-52v1536h52
v-1536z" />
    <glyph glyph-name="bracketleft" unicode="[" 
d="M348 0h-52v1536h52v-1536zM156 0h-52v1536h52v-1536zM540 0h-52v1536h52v-1536zM732 0h-52v1536h52v-1536zM52 0h-52v1536h52v-1536zM1516 0h-140v1536h140v-1536zM1236 0h-52v1536h52v-1536zM1028 0h-52v1536h52v-1536zM1132 0h-52v1536h52v-1536zM924 0h-140v1536h140
v-1536z" />
    <glyph glyph-name="backslash" unicode="\" 
d="M348 0h-52v1536h52v-1536zM156 0h-52v1536h52v-1536zM540 0h-52v1536h52v-1536zM732 0h-52v1536h52v-1536zM52 0h-52v1536h52v-1536zM1132 0h-52v1536h52v-1536zM836 0h-52v1536h52v-1536zM1516 0h-140v1536h140v-1536zM1236 0h-52v1536h52v-1536zM1028 0h-140v1536h140
v-1536z" />
    <glyph glyph-name="bracketright" unicode="]" 
d="M348 0h-52v1536h52v-1536zM156 0h-52v1536h52v-1536zM540 0h-52v1536h52v-1536zM732 0h-52v1536h52v-1536zM52 0h-52v1536h52v-1536zM1516 0h-52v1536h52v-1536zM924 0h-140v1536h140v-1536zM1324 0h-52v1536h52v-1536zM1116 0h-140v1536h140v-1536zM1220 0h-52v1536h52
v-1536z" />
    <glyph glyph-name="asciicircum" unicode="^" 
d="M348 0h-52v1536h52v-1536zM156 0h-52v1536h52v-1536zM540 0h-52v1536h52v-1536zM732 0h-52v1536h52v-1536zM52 0h-52v1536h52v-1536zM1236 0h-52v1536h52v-1536zM940 0h-52v1536h52v-1536zM836 0h-52v1536h52v-1536zM1516 0h-140v1536h140v-1536zM1132 0h-140v1536h140
v-1536z" />
    <glyph glyph-name="underscore" unicode="_" 
d="M348 0h-52v1536h52v-1536zM156 0h-52v1536h52v-1536zM540 0h-52v1536h52v-1536zM732 0h-52v1536h52v-1536zM52 0h-52v1536h52v-1536zM1324 0h-52v1536h52v-1536zM1028 0h-52v1536h52v-1536zM924 0h-140v1536h140v-1536zM1516 0h-52v1536h52v-1536zM1220 0h-140v1536h140
v-1536z" />
    <glyph glyph-name="grave" unicode="`" 
d="M348 0h-52v1536h52v-1536zM156 0h-52v1536h52v-1536zM540 0h-52v1536h52v-1536zM732 0h-52v1536h52v-1536zM52 0h-52v1536h52v-1536zM1204 0h-140v1536h140v-1536zM924 0h-140v1536h140v-1536zM1308 0h-52v1536h52v-1536zM1516 0h-52v1536h52v-1536zM1412 0h-52v1536h52
v-1536z" />
    <glyph glyph-name="braceleft" unicode="{" 
d="M348 0h-52v1536h52v-1536zM156 0h-52v1536h52v-1536zM540 0h-52v1536h52v-1536zM732 0h-52v1536h52v-1536zM52 0h-52v1536h52v-1536zM1324 0h-52v1536h52v-1536zM836 0h-52v1536h52v-1536zM1028 0h-140v1536h140v-1536zM1516 0h-52v1536h52v-1536zM1220 0h-140v1536h140
v-1536z" />
    <glyph glyph-name="bar" unicode="|" 
d="M348 0h-52v1536h52v-1536zM156 0h-52v1536h52v-1536zM540 0h-52v1536h52v-1536zM732 0h-52v1536h52v-1536zM52 0h-52v1536h52v-1536zM940 0h-52v1536h52v-1536zM1044 0h-52v1536h52v-1536zM836 0h-52v1536h52v-1536zM1236 0h-140v1536h140v-1536zM1516 0h-140v1536h140
v-1536z" />
    <glyph glyph-name="braceright" unicode="}" 
d="M348 0h-52v1536h52v-1536zM156 0h-52v1536h52v-1536zM540 0h-52v1536h52v-1536zM732 0h-52v1536h52v-1536zM52 0h-52v1536h52v-1536zM1324 0h-140v1536h140v-1536zM1516 0h-52v1536h52v-1536zM1028 0h-52v1536h52v-1536zM1132 0h-52v1536h52v-1536zM924 0h-140v1536h140
v-1536z" />
    <glyph glyph-name="asciitilde" unicode="~" 
d="M348 0h-52v1536h52v-1536zM156 0h-52v1536h52v-1536zM540 0h-52v1536h52v-1536zM732 0h-52v1536h52v-1536zM52 0h-52v1536h52v-1536zM1132 0h-52v1536h52v-1536zM836 0h-52v1536h52v-1536zM1324 0h-140v1536h140v-1536zM1516 0h-52v1536h52v-1536zM1028 0h-140v1536h140
v-1536z" />
    <glyph glyph-name="glyph79" horiz-adv-x="784" 
d="M244 0h-52v1536h52v-1536zM540 0h-52v1536h52v-1536zM348 0h-52v1536h52v-1536zM732 0h-52v1536h52v-1536zM52 0h-52v1536h52v-1536z" />
    <glyph glyph-name="a" unicode="a" 
d="M244 0h-52v1536h52v-1536zM540 0h-52v1536h52v-1536zM348 0h-52v1536h52v-1536zM732 0h-52v1536h52v-1536zM52 0h-52v1536h52v-1536zM1516 0h-140v1536h140v-1536zM1324 0h-52v1536h52v-1536zM1028 0h-52v1536h52v-1536zM1132 0h-52v1536h52v-1536zM924 0h-140v1536h140
v-1536z" />
    <glyph glyph-name="b" unicode="b" 
d="M244 0h-52v1536h52v-1536zM540 0h-52v1536h52v-1536zM348 0h-52v1536h52v-1536zM732 0h-52v1536h52v-1536zM52 0h-52v1536h52v-1536zM1132 0h-52v1536h52v-1536zM836 0h-52v1536h52v-1536zM1516 0h-140v1536h140v-1536zM1028 0h-140v1536h140v-1536zM1324 0h-52v1536h52
v-1536z" />
    <glyph glyph-name="c" unicode="c" 
d="M244 0h-52v1536h52v-1536zM540 0h-52v1536h52v-1536zM348 0h-52v1536h52v-1536zM732 0h-52v1536h52v-1536zM52 0h-52v1536h52v-1536zM1412 0h-52v1536h52v-1536zM924 0h-140v1536h140v-1536zM1220 0h-52v1536h52v-1536zM1116 0h-140v1536h140v-1536zM1516 0h-52v1536h52
v-1536z" />
    <glyph glyph-name="d" unicode="d" 
d="M244 0h-52v1536h52v-1536zM540 0h-52v1536h52v-1536zM348 0h-52v1536h52v-1536zM732 0h-52v1536h52v-1536zM52 0h-52v1536h52v-1536zM1324 0h-52v1536h52v-1536zM940 0h-52v1536h52v-1536zM836 0h-52v1536h52v-1536zM1132 0h-140v1536h140v-1536zM1516 0h-140v1536h140
v-1536z" />
    <glyph glyph-name="e" unicode="e" 
d="M244 0h-52v1536h52v-1536zM540 0h-52v1536h52v-1536zM348 0h-52v1536h52v-1536zM732 0h-52v1536h52v-1536zM52 0h-52v1536h52v-1536zM1220 0h-140v1536h140v-1536zM1516 0h-52v1536h52v-1536zM1028 0h-52v1536h52v-1536zM1412 0h-52v1536h52v-1536zM924 0h-140v1536h140
v-1536z" />
    <glyph glyph-name="f" unicode="f" 
d="M244 0h-52v1536h52v-1536zM540 0h-52v1536h52v-1536zM348 0h-52v1536h52v-1536zM732 0h-52v1536h52v-1536zM52 0h-52v1536h52v-1536zM1412 0h-52v1536h52v-1536zM836 0h-52v1536h52v-1536zM1028 0h-140v1536h140v-1536zM1220 0h-140v1536h140v-1536zM1516 0h-52v1536h52
v-1536z" />
    <glyph glyph-name="g" unicode="g" 
d="M244 0h-52v1536h52v-1536zM540 0h-52v1536h52v-1536zM348 0h-52v1536h52v-1536zM732 0h-52v1536h52v-1536zM52 0h-52v1536h52v-1536zM940 0h-52v1536h52v-1536zM1044 0h-52v1536h52v-1536zM836 0h-52v1536h52v-1536zM1516 0h-140v1536h140v-1536zM1324 0h-140v1536h140
v-1536z" />
    <glyph glyph-name="h" unicode="h" 
d="M244 0h-52v1536h52v-1536zM540 0h-52v1536h52v-1536zM348 0h-52v1536h52v-1536zM732 0h-52v1536h52v-1536zM52 0h-52v1536h52v-1536zM1412 0h-140v1536h140v-1536zM1516 0h-52v1536h52v-1536zM1028 0h-52v1536h52v-1536zM1132 0h-52v1536h52v-1536zM924 0h-140v1536h140
v-1536z" />
    <glyph glyph-name="i" unicode="i" 
d="M244 0h-52v1536h52v-1536zM540 0h-52v1536h52v-1536zM348 0h-52v1536h52v-1536zM732 0h-52v1536h52v-1536zM52 0h-52v1536h52v-1536zM1132 0h-52v1536h52v-1536zM836 0h-52v1536h52v-1536zM1412 0h-140v1536h140v-1536zM1516 0h-52v1536h52v-1536zM1028 0h-140v1536h140
v-1536z" />
    <glyph glyph-name="j" unicode="j" 
d="M244 0h-52v1536h52v-1536zM540 0h-52v1536h52v-1536zM348 0h-52v1536h52v-1536zM732 0h-52v1536h52v-1536zM52 0h-52v1536h52v-1536zM1516 0h-52v1536h52v-1536zM940 0h-52v1536h52v-1536zM836 0h-52v1536h52v-1536zM1132 0h-140v1536h140v-1536zM1412 0h-140v1536h140
v-1536z" />
    <glyph glyph-name="k" unicode="k" 
d="M244 0h-52v1536h52v-1536zM540 0h-52v1536h52v-1536zM348 0h-52v1536h52v-1536zM732 0h-52v1536h52v-1536zM52 0h-52v1536h52v-1536zM1516 0h-140v1536h140v-1536zM1236 0h-52v1536h52v-1536zM1028 0h-52v1536h52v-1536zM1132 0h-52v1536h52v-1536zM924 0h-140v1536h140
v-1536z" />
    <glyph glyph-name="l" unicode="l" 
d="M244 0h-52v1536h52v-1536zM540 0h-52v1536h52v-1536zM348 0h-52v1536h52v-1536zM732 0h-52v1536h52v-1536zM52 0h-52v1536h52v-1536zM1132 0h-52v1536h52v-1536zM836 0h-52v1536h52v-1536zM1516 0h-140v1536h140v-1536zM1236 0h-52v1536h52v-1536zM1028 0h-140v1536h140
v-1536z" />
    <glyph glyph-name="m" unicode="m" 
d="M244 0h-52v1536h52v-1536zM540 0h-52v1536h52v-1536zM348 0h-52v1536h52v-1536zM732 0h-52v1536h52v-1536zM52 0h-52v1536h52v-1536zM1516 0h-52v1536h52v-1536zM924 0h-140v1536h140v-1536zM1324 0h-52v1536h52v-1536zM1116 0h-140v1536h140v-1536zM1220 0h-52v1536h52
v-1536z" />
    <glyph glyph-name="n" unicode="n" 
d="M244 0h-52v1536h52v-1536zM540 0h-52v1536h52v-1536zM348 0h-52v1536h52v-1536zM732 0h-52v1536h52v-1536zM52 0h-52v1536h52v-1536zM1236 0h-52v1536h52v-1536zM940 0h-52v1536h52v-1536zM836 0h-52v1536h52v-1536zM1516 0h-140v1536h140v-1536zM1132 0h-140v1536h140
v-1536z" />
    <glyph glyph-name="o" unicode="o" 
d="M244 0h-52v1536h52v-1536zM540 0h-52v1536h52v-1536zM348 0h-52v1536h52v-1536zM732 0h-52v1536h52v-1536zM52 0h-52v1536h52v-1536zM1324 0h-52v1536h52v-1536zM1028 0h-52v1536h52v-1536zM924 0h-140v1536h140v-1536zM1516 0h-52v1536h52v-1536zM1220 0h-140v1536h140
v-1536z" />
    <glyph glyph-name="p" unicode="p" 
d="M244 0h-52v1536h52v-1536zM540 0h-52v1536h52v-1536zM348 0h-52v1536h52v-1536zM732 0h-52v1536h52v-1536zM52 0h-52v1536h52v-1536zM1324 0h-52v1536h52v-1536zM836 0h-52v1536h52v-1536zM1028 0h-140v1536h140v-1536zM1516 0h-52v1536h52v-1536zM1220 0h-140v1536h140
v-1536z" />
    <glyph glyph-name="q" unicode="q" 
d="M244 0h-52v1536h52v-1536zM540 0h-52v1536h52v-1536zM348 0h-52v1536h52v-1536zM732 0h-52v1536h52v-1536zM52 0h-52v1536h52v-1536zM940 0h-52v1536h52v-1536zM1044 0h-52v1536h52v-1536zM836 0h-52v1536h52v-1536zM1236 0h-140v1536h140v-1536zM1516 0h-140v1536h140
v-1536z" />
    <glyph glyph-name="r" unicode="r" 
d="M244 0h-52v1536h52v-1536zM540 0h-52v1536h52v-1536zM348 0h-52v1536h52v-1536zM732 0h-52v1536h52v-1536zM52 0h-52v1536h52v-1536zM1324 0h-140v1536h140v-1536zM1516 0h-52v1536h52v-1536zM1028 0h-52v1536h52v-1536zM1132 0h-52v1536h52v-1536zM924 0h-140v1536h140
v-1536z" />
    <glyph glyph-name="s" unicode="s" 
d="M244 0h-52v1536h52v-1536zM540 0h-52v1536h52v-1536zM348 0h-52v1536h52v-1536zM732 0h-52v1536h52v-1536zM52 0h-52v1536h52v-1536zM1132 0h-52v1536h52v-1536zM836 0h-52v1536h52v-1536zM1324 0h-140v1536h140v-1536zM1516 0h-52v1536h52v-1536zM1028 0h-140v1536h140
v-1536z" />
    <glyph glyph-name="t" unicode="t" 
d="M244 0h-52v1536h52v-1536zM540 0h-52v1536h52v-1536zM348 0h-52v1536h52v-1536zM732 0h-52v1536h52v-1536zM52 0h-52v1536h52v-1536zM1516 0h-52v1536h52v-1536zM940 0h-52v1536h52v-1536zM836 0h-52v1536h52v-1536zM1132 0h-140v1536h140v-1536zM1324 0h-140v1536h140
v-1536z" />
    <glyph glyph-name="u" unicode="u" 
d="M244 0h-52v1536h52v-1536zM540 0h-52v1536h52v-1536zM348 0h-52v1536h52v-1536zM732 0h-52v1536h52v-1536zM52 0h-52v1536h52v-1536zM1516 0h-140v1536h140v-1536zM924 0h-140v1536h140v-1536zM1116 0h-52v1536h52v-1536zM1220 0h-52v1536h52v-1536zM1324 0h-52v1536h52
v-1536z" />
    <glyph glyph-name="v" unicode="v" 
d="M244 0h-52v1536h52v-1536zM540 0h-52v1536h52v-1536zM348 0h-52v1536h52v-1536zM732 0h-52v1536h52v-1536zM52 0h-52v1536h52v-1536zM1516 0h-140v1536h140v-1536zM1116 0h-140v1536h140v-1536zM1220 0h-52v1536h52v-1536zM1324 0h-52v1536h52v-1536zM836 0h-52v1536h52
v-1536z" />
    <glyph glyph-name="w" unicode="w" 
d="M244 0h-52v1536h52v-1536zM540 0h-52v1536h52v-1536zM348 0h-52v1536h52v-1536zM732 0h-52v1536h52v-1536zM52 0h-52v1536h52v-1536zM1204 0h-140v1536h140v-1536zM924 0h-140v1536h140v-1536zM1308 0h-52v1536h52v-1536zM1516 0h-52v1536h52v-1536zM1412 0h-52v1536h52
v-1536z" />
    <glyph glyph-name="x" unicode="x" 
d="M244 0h-52v1536h52v-1536zM540 0h-52v1536h52v-1536zM348 0h-52v1536h52v-1536zM732 0h-52v1536h52v-1536zM52 0h-52v1536h52v-1536zM1028 0h-52v1536h52v-1536zM1516 0h-140v1536h140v-1536zM1324 0h-52v1536h52v-1536zM836 0h-52v1536h52v-1536zM1220 0h-140v1536h140
v-1536z" />
    <glyph glyph-name="y" unicode="y" 
d="M244 0h-52v1536h52v-1536zM540 0h-52v1536h52v-1536zM348 0h-52v1536h52v-1536zM732 0h-52v1536h52v-1536zM52 0h-52v1536h52v-1536zM1308 0h-140v1536h140v-1536zM924 0h-140v1536h140v-1536zM1116 0h-52v1536h52v-1536zM1412 0h-52v1536h52v-1536zM1516 0h-52v1536h52
v-1536z" />
    <glyph glyph-name="z" unicode="z" 
d="M244 0h-52v1536h52v-1536zM540 0h-52v1536h52v-1536zM348 0h-52v1536h52v-1536zM732 0h-52v1536h52v-1536zM52 0h-52v1536h52v-1536zM1516 0h-52v1536h52v-1536zM1308 0h-140v1536h140v-1536zM1116 0h-140v1536h140v-1536zM1412 0h-52v1536h52v-1536zM836 0h-52v1536h52
v-1536z" />
  </font>
</defs>
</svg>
